inDegrees=no
num_controls=7
num_derivatives=13
num_iterations=37
num_multipliers=7
num_parameters=0
num_slacks=7
num_states=26
objective=0.430483
objective_accelerations=0.053020
objective_balance=0.001082
objective_effort=0.014083
objective_height=0.356196
objective_ligament=0.006103
solver_duration=561.533203
status=Solve_Succeeded
success=true
DataType=double
version=3
OpenSimVersion=4.5
endheader
time	/jointset/ground_pelvis/pelvis_tilt/value	/jointset/ground_pelvis/pelvis_tx/value	/jointset/ground_pelvis/pelvis_ty/value	/jointset/hip_l/hip_flexion_l/value	/jointset/hip_l/hip_adduction_l/value	/jointset/hip_l/hip_rotation_l/value	/jointset/back/lumbar_extension/value	/jointset/patellofemoral_l/patellar_flexion_l/value	/jointset/knee_l/knee_flexion_l/value	/jointset/knee_l/knee_adduction_l/value	/jointset/knee_l/knee_rotation_l/value	/jointset/ankle_l/ankle_angle_l/value	/jointset/subtalar_l/subtalar_angle_l/value	/jointset/ground_pelvis/pelvis_tilt/speed	/jointset/ground_pelvis/pelvis_tx/speed	/jointset/ground_pelvis/pelvis_ty/speed	/jointset/hip_l/hip_flexion_l/speed	/jointset/hip_l/hip_adduction_l/speed	/jointset/hip_l/hip_rotation_l/speed	/jointset/back/lumbar_extension/speed	/jointset/patellofemoral_l/patellar_flexion_l/speed	/jointset/knee_l/knee_flexion_l/speed	/jointset/knee_l/knee_adduction_l/speed	/jointset/knee_l/knee_rotation_l/speed	/jointset/ankle_l/ankle_angle_l/speed	/jointset/subtalar_l/subtalar_angle_l/speed	/forceset/tau_hip_flexion_l	/forceset/tau_hip_adduction_l	/forceset/tau_hip_rotation_l	/forceset/tau_knee_flexion_l	/forceset/tau_ankle_angle_l	/forceset/tau_subtalar_angle_l	/forceset/tau_lumbar_extension	lambda_cid13_p0	lambda_cid13_p1	lambda_cid13_p2	lambda_cid13_p3	lambda_cid13_p4	lambda_cid13_p5	lambda_cid14_p0	/jointset/ground_pelvis/pelvis_tilt/accel	/jointset/ground_pelvis/pelvis_tx/accel	/jointset/ground_pelvis/pelvis_ty/accel	/jointset/hip_l/hip_flexion_l/accel	/jointset/hip_l/hip_adduction_l/accel	/jointset/hip_l/hip_rotation_l/accel	/jointset/back/lumbar_extension/accel	/jointset/patellofemoral_l/patellar_flexion_l/accel	/jointset/knee_l/knee_flexion_l/accel	/jointset/knee_l/knee_adduction_l/accel	/jointset/knee_l/knee_rotation_l/accel	/jointset/ankle_l/ankle_angle_l/accel	/jointset/subtalar_l/subtalar_angle_l/accel	gamma_cid13_p0	gamma_cid13_p1	gamma_cid13_p2	gamma_cid13_p3	gamma_cid13_p4	gamma_cid13_p5	gamma_cid14_p0
1	-0.4019176535531947	0.01061935561191769	0.6320392664859625	1.548297354236152	-0.3550621560918783	0.1254966872829702	-0.4362805723835976	1.415281871332355	1.415281871332396	0.02543303436333695	-0.1743385363483841	0.4351356944851057	0.2355987071414186	-0.1329991596853321	0.007357121420766354	0.03566558516351608	0.006465801865394813	-0.001596751108079755	-0.05344739341555152	-0.001252299324717801	-0.1608407055954885	-0.1608407055954904	-0.01141439488405074	-0.0001715006790890866	-0.0480826604219608	-0.03057928304760058	-0.2114275034813339	0.09145775388131866	-0.005588913831319277	-0.2868241546791865	-0.0137740920936482	-0.0181774762317575	0.1923283426810088	-39.68195669352787	25.35383833319647	-16.32958087988403	1.99156312282021	-533.162982774323	-27.11257311288503	-0.02432078488662959	1.384645185355123	0.2938449297651952	1.780590436719351	-6.063338661514837	-0.181807967957638	-1.520243146351184	-0.01369837846924674	-5.224838245586123	-5.224838245586128	-0.7134619702119983	-0.006804711968045395	-0.9939200441167473	-0.8641235324963672	-8.08327165693937e-09	-8.564015510892724e-08	-7.398434163556704e-09	3.844131910610989e-09	-9.144883074560425e-09	-8.367417542467666e-08	-2.430517511752363e-09
1.01	-0.4031791244559836	0.01070762103295763	0.6324847917588545	1.548059791119024	-0.3550866821035388	0.1248872372299893	-0.4362926953988448	1.41341237941439	1.413412379414394	0.02528300536105956	-0.1743392760980576	0.4346051031241235	0.235250573343412	-0.1192850595318197	0.01030177173824603	0.05343685712377464	-0.05398953526283141	-0.003299456104355485	-0.06843335266335035	-0.001156662487552481	-0.2130744748879251	-0.2130744748879305	-0.01859266496576337	3.737836016836489e-05	-0.05805116855246376	-0.03903579524298811	-0.2120057939197101	0.09146550044917069	-0.005612338709432136	-0.2857634045410562	-0.01442014117863016	-0.01811403544465259	0.1926840758161381	-39.85295820262407	25.28892794448944	-16.24236059957482	1.972856149559356	-533.1400462177639	-27.06620989192471	-0.02434279394465709	1.366286755666176	0.2956464054122157	1.775001142670309	-6.038297856966076	-0.163148068565228	-1.486391500822935	0.0235408997342131	-5.225165057973488	-5.225165057974112	-0.7202102060037356	0.03679971655039452	-1.000656270308024	-0.8346442579281595	-8.950255700803227e-09	-1.082022570006985e-07	-1.088947776014596e-08	-5.754712473127672e-11	-1.290830398729282e-08	-9.961715011851586e-08	-3.720270978467529e-09
1.02	-0.4043031554921682	0.01082550722170654	0.6331079508647472	1.547217341306903	-0.3551279644257841	0.1241282037471729	-0.4363033928088361	1.411020046046122	1.411020046046098	0.02506115352219689	-0.1743375139564005	0.4339743586672771	0.2348182285844779	-0.1055111863656417	0.01328127496256045	0.07119235176366139	-0.114511537130652	-0.004948013224743918	-0.08336407938429412	-0.0009671782534099415	-0.2654089956564051	-0.2654089956564141	-0.0257789622015838	0.0003288775865421132	-0.06811327959460815	-0.04742147523310066	-0.2125840843582043	0.09147324701704235	-0.005635763587543111	-0.2847026544029174	-0.01506619026358317	-0.01805059465749802	0.1930398089511533	-40.02698995555071	25.22113650924111	-16.15078398831737	1.946391800089885	-533.2386546452975	-27.02622782924103	-0.02436725180248251	1.396599787888516	0.300815511131934	1.777434972644961	-6.076671609433588	-0.1709783927801185	-1.509196640980149	0.005071100925431326	-5.244988540794818	-5.244988540794814	-0.715067401033527	0.009719325455205353	-1.0126406264454	-0.8499570914414964	-1.001645715808897e-08	-1.365192072324835e-07	-1.305759589017577e-08	-5.21373118320346e-09	-1.645642318086986e-08	-1.169903064286214e-07	-6.02646510903222e-09
1.03	-0.4052892490291119	0.01097341728845609	0.6339084651885672	1.545769645393873	-0.3551855461210778	0.1232202227086637	-0.4363112963240507	1.408104065279252	1.408104065279249	0.02476728414849243	-0.1743326443974935	0.4332425403064146	0.2343022733294845	-0.09170749621359967	0.01631205038036157	0.08889588554866343	-0.175008546610342	-0.006568615627010744	-0.09821645251414937	-0.0005549114915579399	-0.3177842132749239	-0.317784213274934	-0.03300736237981959	0.0006347261167313721	-0.0782645286494241	-0.05576988902247726	-0.2130842587919964	0.09147109713395148	-0.005654707701549694	-0.2832872022818055	-0.01577604792267933	-0.01796631134407502	0.1933808842470832	-40.1943609570876	25.12647991510574	-16.03590956443989	1.885702330617844	-533.0366044877861	-26.95682738302838	-0.02439701887367553	1.372256737596713	0.3059032475841232	1.764614441643891	-6.033351690150199	-0.1576372476752946	-1.470921363516373	0.06809644680009601	-5.233345023334822	-5.233345023335019	-0.7286132172519051	0.03945895682019473	-1.018497099196153	-0.8273022990190536	-1.108469144612393e-08	-1.648948804065135e-07	-1.521221478075089e-08	-1.038271631334024e-08	-2.000234541812899e-08	-1.343780564286889e-07	-8.343031083105586e-09
1.04	-0.4061373050427931	0.01115197404747943	0.6348855752222802	1.543717552171425	-0.3552593410571425	0.1221641851959515	-0.436313318774402	1.404664421006006	1.404664421006049	0.0244007533948251	-0.1743250280852743	0.4324087834441663	0.2337028301813313	-0.07790368171217137	0.01941061341731836	0.1065114937422762	-0.2353909990065753	-0.008190661378288852	-0.1129753742251303	0.0002090345896916844	-0.3701416969316225	-0.3701416969316337	-0.04031123819938378	0.0008782282477049211	-0.08850097987210447	-0.06411905386518339	-0.2135844332260566	0.09146894725084587	-0.005673651815453071	-0.2818717501606892	-0.01648590558173675	-0.01788202803065523	0.1937219595427387	-40.36499899276506	25.0290205161083	-15.91673332783259	1.817430740452464	-532.9576854234455	-26.89463912930297	-0.02442931995797552	1.396624657766046	0.3143730349628547	1.759849854367086	-6.053760192742138	-0.1712670625823003	-1.490506357205247	0.07540696480424516	-5.241441748430786	-5.241441748430785	-0.7301625292991653	-0.002749954387909432	-1.029681060018657	-0.8501073021074991	-1.185536065001712e-08	-1.922655141796846e-07	-2.078201566036285e-08	-1.573141336539942e-08	-2.244988423517924e-08	-1.523892063143686e-07	-1.006620850539512e-08
1.05	-0.4068475949037149	0.01136191914890599	0.6360382465599935	1.541062721427088	-0.3553493605559087	0.1209610121870871	-0.4363051613125232	1.400701569645603	1.40070156964564	0.02396094006817793	-0.1743153353683852	0.4314723092334584	0.2330199649560385	-0.06418303706998686	0.02259609884419309	0.1239925115965724	-0.2955034381192629	-0.009813951829237375	-0.127646357080321	0.001561323464170291	-0.4223978945888853	-0.4223978945888882	-0.04765081446216487	0.001043266242257889	-0.09880072968301191	-0.0724480396559552	-0.2140769934154376	0.09146495805098341	-0.005691471287723532	-0.2800274886334033	-0.01732369221491285	-0.01777372258307591	0.1941165744009319	-40.5482623791482	24.90305784221548	-15.76984709903251	1.711233182705985	-532.577381336793	-26.79788349029396	-0.0244668418540254	1.355471056899938	0.3232858211626473	1.737683423327438	-5.979230617033202	-0.1579556211202372	-1.453483838859628	0.1859697034653395	-5.213104318957744	-5.213104318956457	-0.7357896618264066	0.02355580274793601	-1.031164567236654	-0.8233631551406861	-1.261673094503088e-08	-2.196047404715788e-07	-2.645854097713218e-08	-2.108572641501868e-08	-2.486309857034796e-08	-1.704198374464738e-07	-1.177084253544141e-08
1.06	-0.4074215409803323	0.01160424900952385	0.6373648192107226	1.537808917322287	-0.3554556320761389	0.1196115114318155	-0.4362793149910671	1.39621707719971	1.396217077199762	0.02344774408153608	-0.1743045072462552	0.4304326289995313	0.232253996085323	-0.05063492484958508	0.02588756525557597	0.1412917563454855	-0.3551856710919941	-0.01144106567093368	-0.1422409235028605	0.003746806526483281	-0.4744699140295019	-0.4744699140294962	-0.05498777020729934	0.001105309291659868	-0.1091421845183216	-0.08073978294987266	-0.2145695536050478	0.09146096885104019	-0.005709290759798741	-0.2781832271061235	-0.01816147884807762	-0.01766541713562534	0.1945111892588884	-40.7350371848084	24.77439750534389	-15.61874708574625	1.597308426598936	-532.3215135075925	-26.70932018452504	-0.02450700767009007	1.362118173409761	0.3355692318642787	1.72349523329047	-5.967718964750746	-0.1720317407317753	-1.475223070674961	0.2420458023716109	-5.204606105101525	-5.204606105101522	-0.7296384257697951	-0.02334894341804509	-1.038022064899452	-0.8426588027367026	-1.351560361560426e-08	-2.443196379497245e-07	-2.965124985232766e-08	-2.531715468562013e-08	-2.792016528230524e-08	-1.867967260000961e-07	-1.342765151069924e-08
1.07	-0.407860897091191	0.01188004997715457	0.6388633779226182	1.533960647321867	-0.3555781682518646	0.1181164836586151	-0.4362272751926197	1.39121293993864	1.391212939938659	0.02286125133659428	-0.1742935567489472	0.429289323095264	0.231405357877978	-0.03727097641049756	0.02929293969278559	0.1583796952120002	-0.4143732920983098	-0.01306442330774362	-0.156747330732501	0.006821297866800836	-0.5263113971480372	-0.5263113971480298	-0.06230585350024395	0.001069335079343667	-0.1195260970579971	-0.08897570356471297	-0.2149093541178554	0.09147551566443281	-0.005720608072092283	-0.2760363007780858	-0.01903090554066546	-0.01754404918605433	0.1948145969526766	-40.90710184478144	24.62446127942491	-15.4493749404881	1.471426495116271	-531.7497074641996	-26.59012443160237	-0.02455332827371732	1.318329425918874	0.346062305646327	1.695393344017143	-5.880030356322459	-0.1572113635933059	-1.435779424570631	0.3641725063765003	-5.16699521996944	-5.166995219969142	-0.7321872811514909	0.003938814014948838	-1.039656086895683	-0.8121885074607729	-1.442179024232443e-08	-2.688949434696921e-07	-3.271184083169472e-08	-2.948885504244403e-08	-3.101147946111297e-08	-2.030856495229481e-07	-1.508191660006408e-08
1.08	-0.408167654468314	0.0121905128403569	0.6405316060493154	1.529523351773811	-0.3557168827216431	0.11647690583799	-0.4361396861394941	1.385691772685436	1.385691772685433	0.02220171895875549	-0.1742834338988982	0.4280419620179413	0.2304747345011648	-0.02411517810097606	0.03281994436989546	0.1752256393058697	-0.4729907806146399	-0.0146767244820336	-0.1711509329806286	0.01085665746770628	-0.577875912456175	-0.5778759124561661	-0.06959569679697965	0.0009397798331680983	-0.129953219133444	-0.09713681684367732	-0.215249154630787	0.0914900624776951	-0.005731925384149454	-0.2738893744500641	-0.01990033223327475	-0.01742268123671234	0.195118004646334	-41.08294962320807	24.47196820646409	-15.27591800462235	1.337511239975908	-531.3033500495094	-26.48015967964442	-0.02460042488051541	1.320488147496786	0.3598952798441262	1.675096278761432	-5.853692466753541	-0.169820448227694	-1.454662074372336	0.4342194544893759	-5.149212543022037	-5.149212543022063	-0.7239904265279633	-0.04206515018982555	-1.046663972054061	-0.8276973355615553	-1.537329519672541e-08	-2.90893962102109e-07	-3.519911163897784e-08	-3.280840176304235e-08	-3.396964875136928e-08	-2.174027338988075e-07	-1.656963701077362e-08
